# xmcd
#
# Track frame offsets: 
#        150
#        16099
#        35277
#        51788
#        64887
#        78733
#        100170
#        117975
#        139071
#        156357
#        173491
#        193308
#        210952
#        227599
#        245114
#
# Disc length: 3501 seconds
#
# Revision: 4
# Processed by: cddbd v1.5.2PL0 Copyright (c) Steve Scherf et al.
# Submitted via: ExactAudioCopy v1.0b4
#
DISCID=c80dab0f
DTITLE=Calcinha Preta - Hoje À Noite - Vol. 11
DYEAR=2004
DGENRE=Forró
TTITLE0=Hoje à Noite
TTITLE1=Hipnose
TTITLE2=Não Tenho Nada
TTITLE3=Baby Dool
TTITLE4=Eu Quero é Gozar a Vida
TTITLE5=Morrendo de Desejo
TTITLE6=Ansia
TTITLE7=Meu Amor Não Vá
TTITLE8=Quem Sabe Um Dia
TTITLE9=Vem Ver a Calcinha Preta
TTITLE10=Te Quero Namorar
TTITLE11=Porque Te Amo?
TTITLE12=Por amor
TTITLE13=Seu Namorado
TTITLE14=Amor da Minha Vida
EXTD=
EXTT0=
EXTT1=
EXTT2=
EXTT3=
EXTT4=
EXTT5=
EXTT6=
EXTT7=
EXTT8=
EXTT9=
EXTT10=
EXTT11=
EXTT12=
EXTT13=
EXTT14=
PLAYORDER=
